<?xml version="1.0" encoding="UTF-8"?>
<!DOCTYPE svg PUBLIC "-//W3C//DTD SVG 1.1//EN" "http://www.w3.org/Graphics/SVG/1.1/DTD/svg11.dtd">
<svg xmlns="http://www.w3.org/2000/svg" version="1.1" width="500px" height="500px" style="shape-rendering:geometricPrecision; text-rendering:geometricPrecision; image-rendering:optimizeQuality; fill-rule:evenodd; clip-rule:evenodd" xmlns:xlink="http://www.w3.org/1999/xlink">
<g><path style="opacity:0.998" fill="#020202" d="M 80.5,27.5 C 80.8212,29.0481 81.8212,29.7148 83.5,29.5C 101.963,39.566 120.297,49.8993 138.5,60.5C 138.821,62.0481 139.821,62.7148 141.5,62.5C 142.833,63.1667 144.167,63.8333 145.5,64.5C 145.821,66.0481 146.821,66.7148 148.5,66.5C 150.062,66.7329 151.395,67.3995 152.5,68.5C 152.821,70.0481 153.821,70.7148 155.5,70.5C 163.995,74.9132 172.328,79.5799 180.5,84.5C 180.821,86.0481 181.821,86.7148 183.5,86.5C 209.996,101.247 236.329,116.247 262.5,131.5C 262.821,133.048 263.821,133.715 265.5,133.5C 272.456,136.645 279.123,140.311 285.5,144.5C 285.821,146.048 286.821,146.715 288.5,146.5C 290.062,146.733 291.395,147.4 292.5,148.5C 292.821,150.048 293.821,150.715 295.5,150.5C 297.062,150.733 298.395,151.4 299.5,152.5C 300.035,154.446 301.368,155.446 303.5,155.5C 308.45,157.308 313.117,159.642 317.5,162.5C 317.821,164.048 318.821,164.715 320.5,164.5C 322.67,166.086 325.004,167.42 327.5,168.5C 327.821,170.048 328.821,170.715 330.5,170.5C 331.833,171.167 333.167,171.833 334.5,172.5C 334.821,174.048 335.821,174.715 337.5,174.5C 339.5,175.5 341.5,176.5 343.5,177.5C 343.821,179.048 344.821,179.715 346.5,179.5C 347.833,180.167 349.167,180.833 350.5,181.5C 350.821,183.048 351.821,183.715 353.5,183.5C 355.062,183.733 356.395,184.4 357.5,185.5C 357.821,187.048 358.821,187.715 360.5,187.5C 362.969,188.569 365.302,189.902 367.5,191.5C 367.821,193.048 368.821,193.715 370.5,193.5C 374.593,195.309 378.593,197.309 382.5,199.5C 383.035,201.446 384.368,202.446 386.5,202.5C 388.483,203.471 390.483,204.471 392.5,205.5C 392.821,207.048 393.821,207.715 395.5,207.5C 396.833,208.167 398.167,208.833 399.5,209.5C 399.821,211.048 400.821,211.715 402.5,211.5C 411.799,216.149 420.799,221.316 429.5,227C 444.167,242 444.167,257 429.5,272C 310.263,340.292 190.93,408.625 71.5,477C 61.031,481.189 51.3643,480.022 42.5,473.5C 42.0269,472.094 41.0269,471.427 39.5,471.5C 34.909,467.999 32.0757,463.333 31,457.5C 30.3333,318.833 30.3333,180.167 31,41.5C 36.3864,26.2166 47.2197,19.05 63.5,20C 69.6833,21.4271 75.35,23.9271 80.5,27.5 Z"/></g>
<g><path style="opacity:0.667" fill="#6f6f6f" d="M 80.5,27.5 C 81.7095,27.9321 82.7095,28.5987 83.5,29.5C 81.8212,29.7148 80.8212,29.0481 80.5,27.5 Z"/></g>
<g><path style="opacity:0.608" fill="#707070" d="M 138.5,60.5 C 139.71,60.9321 140.71,61.5987 141.5,62.5C 139.821,62.7148 138.821,62.0481 138.5,60.5 Z"/></g>
<g><path style="opacity:0.608" fill="#707070" d="M 145.5,64.5 C 146.71,64.9321 147.71,65.5987 148.5,66.5C 146.821,66.7148 145.821,66.0481 145.5,64.5 Z"/></g>
<g><path style="opacity:0.545" fill="#707070" d="M 152.5,68.5 C 153.71,68.9321 154.71,69.5987 155.5,70.5C 153.821,70.7148 152.821,70.0481 152.5,68.5 Z"/></g>
<g><path style="opacity:0.525" fill="#787878" d="M 180.5,84.5 C 181.71,84.9321 182.71,85.5987 183.5,86.5C 181.821,86.7148 180.821,86.0481 180.5,84.5 Z"/></g>
<g><path style="opacity:0.565" fill="#7d7d7d" d="M 262.5,131.5 C 263.71,131.932 264.71,132.599 265.5,133.5C 263.821,133.715 262.821,133.048 262.5,131.5 Z"/></g>
<g><path style="opacity:0.592" fill="#747474" d="M 285.5,144.5 C 286.71,144.932 287.71,145.599 288.5,146.5C 286.821,146.715 285.821,146.048 285.5,144.5 Z"/></g>
<g><path style="opacity:0.596" fill="#747474" d="M 292.5,148.5 C 293.71,148.932 294.71,149.599 295.5,150.5C 293.821,150.715 292.821,150.048 292.5,148.5 Z"/></g>
<g><path style="opacity:0.604" fill="#7b7b7b" d="M 299.5,152.5 C 301.23,153.026 302.564,154.026 303.5,155.5C 301.368,155.446 300.035,154.446 299.5,152.5 Z"/></g>
<g><path style="opacity:0.518" fill="#7d7d7d" d="M 317.5,162.5 C 318.71,162.932 319.71,163.599 320.5,164.5C 318.821,164.715 317.821,164.048 317.5,162.5 Z"/></g>
<g><path style="opacity:0.596" fill="#7d7d7d" d="M 327.5,168.5 C 328.71,168.932 329.71,169.599 330.5,170.5C 328.821,170.715 327.821,170.048 327.5,168.5 Z"/></g>
<g><path style="opacity:0.506" fill="#7d7d7d" d="M 334.5,172.5 C 335.71,172.932 336.71,173.599 337.5,174.5C 335.821,174.715 334.821,174.048 334.5,172.5 Z"/></g>
<g><path style="opacity:0.541" fill="#747474" d="M 343.5,177.5 C 344.71,177.932 345.71,178.599 346.5,179.5C 344.821,179.715 343.821,179.048 343.5,177.5 Z"/></g>
<g><path style="opacity:0.616" fill="#747474" d="M 350.5,181.5 C 351.71,181.932 352.71,182.599 353.5,183.5C 351.821,183.715 350.821,183.048 350.5,181.5 Z"/></g>
<g><path style="opacity:0.612" fill="#747474" d="M 357.5,185.5 C 358.71,185.932 359.71,186.599 360.5,187.5C 358.821,187.715 357.821,187.048 357.5,185.5 Z"/></g>
<g><path style="opacity:0.698" fill="#747474" d="M 367.5,191.5 C 368.71,191.932 369.71,192.599 370.5,193.5C 368.821,193.715 367.821,193.048 367.5,191.5 Z"/></g>
<g><path style="opacity:0.58" fill="#818181" d="M 382.5,199.5 C 384.23,200.026 385.564,201.026 386.5,202.5C 384.368,202.446 383.035,201.446 382.5,199.5 Z"/></g>
<g><path style="opacity:0.663" fill="#7c7c7c" d="M 392.5,205.5 C 393.71,205.932 394.71,206.599 395.5,207.5C 393.821,207.715 392.821,207.048 392.5,205.5 Z"/></g>
<g><path style="opacity:0.624" fill="#7d7d7d" d="M 399.5,209.5 C 400.71,209.932 401.71,210.599 402.5,211.5C 400.821,211.715 399.821,211.048 399.5,209.5 Z"/></g>
<g><path style="opacity:0.514" fill="#787878" d="M 39.5,471.5 C 41.0269,471.427 42.0269,472.094 42.5,473.5C 40.9731,473.573 39.9731,472.906 39.5,471.5 Z"/></g>
</svg>
